<mxfile host="app.diagrams.net" agent="Mozilla/5.0 (X11; Linux x86_64; rv:140.0) Gecko/20100101 Firefox/140.0" version="28.0.3">
  <diagram name="Página-1" id="Vmh3bWG1Y7kcIIQIWJmZ">
    <mxGraphModel dx="1026" dy="567" grid="1" gridSize="10" guides="1" tooltips="1" connect="1" arrows="1" fold="1" page="1" pageScale="1" pageWidth="1169" pageHeight="827" math="0" shadow="0">
      <root>
        <mxCell id="0" />
        <mxCell id="1" parent="0" />
        <mxCell id="v0zVqJ3OwNoAvYnQ-Pu4-1" value="&lt;font face=&quot;Times New Roman&quot; style=&quot;font-size: 17px;&quot;&gt;&lt;b&gt;Biblioteca Comunitária&lt;/b&gt;&lt;/font&gt;&lt;div&gt;&lt;font face=&quot;Times New Roman&quot;&gt;&lt;i&gt;Diagrama de Casos de Uso&lt;/i&gt;&lt;/font&gt;&lt;/div&gt;&lt;div&gt;&lt;font face=&quot;Times New Roman&quot; style=&quot;font-size: 15px;&quot;&gt;&lt;i&gt;&lt;br&gt;&lt;/i&gt;&lt;/font&gt;&lt;/div&gt;&lt;div&gt;&lt;p id=&quot;docs-internal-guid-7fad7750-7fff-71b2-275c-2eab447b5070&quot; style=&quot;line-height:1.2;text-align: center;margin-top:0pt;margin-bottom:0pt;&quot; dir=&quot;ltr&quot;&gt;&lt;span style=&quot;font-size: 12pt; font-family: &amp;quot;Times New Roman&amp;quot;, serif; color: rgb(0, 0, 0); background-color: transparent; font-style: normal; font-variant: normal; text-decoration: none; vertical-align: baseline; white-space: pre-wrap;&quot;&gt;Vitor Araújo Miranda - 202221250027&lt;/span&gt;&lt;/p&gt;&lt;p style=&quot;line-height:1.2;text-align: center;margin-top:0pt;margin-bottom:0pt;&quot; dir=&quot;ltr&quot;&gt;&lt;span style=&quot;font-size: 12pt; font-family: &amp;quot;Times New Roman&amp;quot;, serif; color: rgb(0, 0, 0); background-color: transparent; font-style: normal; font-variant: normal; text-decoration: none; vertical-align: baseline; white-space: pre-wrap;&quot;&gt;Marcus Cauê de Farias Barbosa - 202321250026&lt;/span&gt;&lt;/p&gt;&lt;br&gt;&lt;/div&gt;" style="text;html=1;align=center;verticalAlign=middle;whiteSpace=wrap;rounded=0;" vertex="1" parent="1">
          <mxGeometry x="417" y="20" width="335" height="130" as="geometry" />
        </mxCell>
        <mxCell id="v0zVqJ3OwNoAvYnQ-Pu4-2" value="" style="rounded=0;whiteSpace=wrap;html=1;fillColor=none;" vertex="1" parent="1">
          <mxGeometry x="150" y="240" width="900" height="1180" as="geometry" />
        </mxCell>
        <mxCell id="v0zVqJ3OwNoAvYnQ-Pu4-3" value="Usuário" style="shape=umlActor;verticalLabelPosition=bottom;verticalAlign=top;html=1;" vertex="1" parent="1">
          <mxGeometry x="60" y="1020" width="30" height="60" as="geometry" />
        </mxCell>
        <mxCell id="v0zVqJ3OwNoAvYnQ-Pu4-4" value="Administrador" style="shape=umlActor;verticalLabelPosition=bottom;verticalAlign=top;html=1;" vertex="1" parent="1">
          <mxGeometry x="60" y="450" width="30" height="60" as="geometry" />
        </mxCell>
        <mxCell id="v0zVqJ3OwNoAvYnQ-Pu4-5" value="" style="strokeWidth=2;html=1;shape=mxgraph.flowchart.database;whiteSpace=wrap;" vertex="1" parent="1">
          <mxGeometry x="1080" y="290" width="60" height="60" as="geometry" />
        </mxCell>
        <mxCell id="v0zVqJ3OwNoAvYnQ-Pu4-6" value="&lt;div&gt;Remover&lt;/div&gt;&lt;div&gt;Livro&lt;/div&gt;" style="ellipse;whiteSpace=wrap;html=1;" vertex="1" parent="1">
          <mxGeometry x="214" y="360" width="80" height="60" as="geometry" />
        </mxCell>
        <mxCell id="v0zVqJ3OwNoAvYnQ-Pu4-7" value="&lt;div&gt;Modificar&lt;/div&gt;&lt;div&gt;Livro&lt;/div&gt;" style="ellipse;whiteSpace=wrap;html=1;" vertex="1" parent="1">
          <mxGeometry x="410" y="330" width="80" height="60" as="geometry" />
        </mxCell>
        <mxCell id="v0zVqJ3OwNoAvYnQ-Pu4-8" value="Cadastrar Livro" style="ellipse;whiteSpace=wrap;html=1;" vertex="1" parent="1">
          <mxGeometry x="210" y="290" width="80" height="60" as="geometry" />
        </mxCell>
        <mxCell id="v0zVqJ3OwNoAvYnQ-Pu4-9" value="" style="endArrow=none;html=1;rounded=0;" edge="1" parent="1" source="v0zVqJ3OwNoAvYnQ-Pu4-4" target="v0zVqJ3OwNoAvYnQ-Pu4-8">
          <mxGeometry width="50" height="50" relative="1" as="geometry">
            <mxPoint x="400" y="510" as="sourcePoint" />
            <mxPoint x="450" y="460" as="targetPoint" />
          </mxGeometry>
        </mxCell>
        <mxCell id="v0zVqJ3OwNoAvYnQ-Pu4-10" value="" style="endArrow=none;html=1;rounded=0;" edge="1" parent="1" source="v0zVqJ3OwNoAvYnQ-Pu4-4" target="v0zVqJ3OwNoAvYnQ-Pu4-6">
          <mxGeometry width="50" height="50" relative="1" as="geometry">
            <mxPoint x="310" y="625" as="sourcePoint" />
            <mxPoint x="437" y="560" as="targetPoint" />
          </mxGeometry>
        </mxCell>
        <mxCell id="v0zVqJ3OwNoAvYnQ-Pu4-11" value="&lt;div&gt;&amp;lt;&amp;lt;extend&amp;gt;&amp;gt;&lt;/div&gt;" style="endArrow=open;endSize=12;dashed=1;html=1;rounded=0;" edge="1" parent="1" source="v0zVqJ3OwNoAvYnQ-Pu4-7" target="v0zVqJ3OwNoAvYnQ-Pu4-8">
          <mxGeometry x="-0.1568" y="-2" width="160" relative="1" as="geometry">
            <mxPoint x="350" y="580" as="sourcePoint" />
            <mxPoint x="510" y="580" as="targetPoint" />
            <mxPoint as="offset" />
          </mxGeometry>
        </mxCell>
        <mxCell id="v0zVqJ3OwNoAvYnQ-Pu4-12" value="Cadastro de usuário" style="ellipse;whiteSpace=wrap;html=1;" vertex="1" parent="1">
          <mxGeometry x="210" y="430" width="80" height="60" as="geometry" />
        </mxCell>
        <mxCell id="v0zVqJ3OwNoAvYnQ-Pu4-13" value="Modificação de usuário" style="ellipse;whiteSpace=wrap;html=1;" vertex="1" parent="1">
          <mxGeometry x="400" y="430" width="80" height="60" as="geometry" />
        </mxCell>
        <mxCell id="v0zVqJ3OwNoAvYnQ-Pu4-14" value="Remoção de usuário" style="ellipse;whiteSpace=wrap;html=1;" vertex="1" parent="1">
          <mxGeometry x="294" y="510" width="80" height="60" as="geometry" />
        </mxCell>
        <mxCell id="v0zVqJ3OwNoAvYnQ-Pu4-15" value="&lt;font&gt;Definir um limite da quantidade de livros emprestados por usuário&lt;/font&gt;" style="ellipse;whiteSpace=wrap;html=1;fontSize=12;" vertex="1" parent="1">
          <mxGeometry x="270" y="750" width="150" height="80" as="geometry" />
        </mxCell>
        <mxCell id="v0zVqJ3OwNoAvYnQ-Pu4-16" value="&lt;font style=&quot;font-size: 10px;&quot;&gt;Aplicar penalidades para empréstimos atrasados&lt;/font&gt;" style="ellipse;whiteSpace=wrap;html=1;" vertex="1" parent="1">
          <mxGeometry x="160" y="775" width="110" height="70" as="geometry" />
        </mxCell>
        <mxCell id="v0zVqJ3OwNoAvYnQ-Pu4-17" value="" style="endArrow=none;html=1;rounded=0;" edge="1" parent="1" source="v0zVqJ3OwNoAvYnQ-Pu4-4">
          <mxGeometry width="50" height="50" relative="1" as="geometry">
            <mxPoint x="160" y="510" as="sourcePoint" />
            <mxPoint x="210" y="460" as="targetPoint" />
          </mxGeometry>
        </mxCell>
        <mxCell id="v0zVqJ3OwNoAvYnQ-Pu4-18" value="" style="endArrow=none;html=1;rounded=0;" edge="1" parent="1" source="v0zVqJ3OwNoAvYnQ-Pu4-4" target="v0zVqJ3OwNoAvYnQ-Pu4-14">
          <mxGeometry width="50" height="50" relative="1" as="geometry">
            <mxPoint x="90" y="609" as="sourcePoint" />
            <mxPoint x="210" y="591" as="targetPoint" />
          </mxGeometry>
        </mxCell>
        <mxCell id="v0zVqJ3OwNoAvYnQ-Pu4-19" value="" style="endArrow=none;html=1;rounded=0;" edge="1" parent="1" source="v0zVqJ3OwNoAvYnQ-Pu4-4" target="v0zVqJ3OwNoAvYnQ-Pu4-15">
          <mxGeometry width="50" height="50" relative="1" as="geometry">
            <mxPoint x="94" y="679" as="sourcePoint" />
            <mxPoint x="210" y="650" as="targetPoint" />
          </mxGeometry>
        </mxCell>
        <mxCell id="v0zVqJ3OwNoAvYnQ-Pu4-20" value="" style="endArrow=none;html=1;rounded=0;" edge="1" parent="1" target="v0zVqJ3OwNoAvYnQ-Pu4-16">
          <mxGeometry width="50" height="50" relative="1" as="geometry">
            <mxPoint x="90" y="500" as="sourcePoint" />
            <mxPoint x="220" y="735" as="targetPoint" />
          </mxGeometry>
        </mxCell>
        <mxCell id="v0zVqJ3OwNoAvYnQ-Pu4-21" value="&lt;div&gt;Visualizar acervo&lt;/div&gt;" style="ellipse;whiteSpace=wrap;html=1;" vertex="1" parent="1">
          <mxGeometry x="200" y="940" width="80" height="60" as="geometry" />
        </mxCell>
        <mxCell id="v0zVqJ3OwNoAvYnQ-Pu4-22" value="&lt;div&gt;Visualizar perfil do usuário&lt;/div&gt;" style="ellipse;whiteSpace=wrap;html=1;" vertex="1" parent="1">
          <mxGeometry x="200" y="1020" width="80" height="60" as="geometry" />
        </mxCell>
        <mxCell id="v0zVqJ3OwNoAvYnQ-Pu4-23" value="&lt;div&gt;Realizar empréstimo&lt;/div&gt;" style="ellipse;whiteSpace=wrap;html=1;" vertex="1" parent="1">
          <mxGeometry x="200" y="1090" width="80" height="60" as="geometry" />
        </mxCell>
        <mxCell id="v0zVqJ3OwNoAvYnQ-Pu4-24" value="&lt;div&gt;Devolver livro&lt;/div&gt;" style="ellipse;whiteSpace=wrap;html=1;" vertex="1" parent="1">
          <mxGeometry x="200" y="1160" width="80" height="60" as="geometry" />
        </mxCell>
        <mxCell id="v0zVqJ3OwNoAvYnQ-Pu4-25" value="" style="endArrow=none;html=1;rounded=0;" edge="1" parent="1" source="v0zVqJ3OwNoAvYnQ-Pu4-3">
          <mxGeometry width="50" height="50" relative="1" as="geometry">
            <mxPoint x="150" y="1020" as="sourcePoint" />
            <mxPoint x="200" y="970" as="targetPoint" />
          </mxGeometry>
        </mxCell>
        <mxCell id="v0zVqJ3OwNoAvYnQ-Pu4-26" value="" style="endArrow=none;html=1;rounded=0;" edge="1" parent="1" source="v0zVqJ3OwNoAvYnQ-Pu4-3">
          <mxGeometry width="50" height="50" relative="1" as="geometry">
            <mxPoint x="75" y="1130" as="sourcePoint" />
            <mxPoint x="200" y="1050" as="targetPoint" />
          </mxGeometry>
        </mxCell>
        <mxCell id="v0zVqJ3OwNoAvYnQ-Pu4-27" value="" style="endArrow=none;html=1;rounded=0;" edge="1" parent="1">
          <mxGeometry width="50" height="50" relative="1" as="geometry">
            <mxPoint x="90" y="1060" as="sourcePoint" />
            <mxPoint x="200" y="1120" as="targetPoint" />
          </mxGeometry>
        </mxCell>
        <mxCell id="v0zVqJ3OwNoAvYnQ-Pu4-28" value="" style="endArrow=none;html=1;rounded=0;" edge="1" parent="1" source="v0zVqJ3OwNoAvYnQ-Pu4-3">
          <mxGeometry width="50" height="50" relative="1" as="geometry">
            <mxPoint x="150" y="1230" as="sourcePoint" />
            <mxPoint x="200" y="1180" as="targetPoint" />
          </mxGeometry>
        </mxCell>
        <mxCell id="v0zVqJ3OwNoAvYnQ-Pu4-29" value="&lt;div&gt;&amp;lt;&amp;lt;extend&amp;gt;&amp;gt;&lt;/div&gt;" style="endArrow=open;endSize=12;dashed=1;html=1;rounded=0;" edge="1" parent="1" source="v0zVqJ3OwNoAvYnQ-Pu4-13" target="v0zVqJ3OwNoAvYnQ-Pu4-12">
          <mxGeometry width="160" relative="1" as="geometry">
            <mxPoint x="500" y="420" as="sourcePoint" />
            <mxPoint x="370" y="420" as="targetPoint" />
          </mxGeometry>
        </mxCell>
        <mxCell id="v0zVqJ3OwNoAvYnQ-Pu4-30" value="Banco de Dados" style="text;html=1;align=center;verticalAlign=middle;whiteSpace=wrap;rounded=0;" vertex="1" parent="1">
          <mxGeometry x="1080" y="350" width="60" height="30" as="geometry" />
        </mxCell>
        <mxCell id="v0zVqJ3OwNoAvYnQ-Pu4-31" value="Acessar Banco de Dados" style="ellipse;whiteSpace=wrap;html=1;" vertex="1" parent="1">
          <mxGeometry x="880" y="310" width="80" height="70" as="geometry" />
        </mxCell>
        <mxCell id="v0zVqJ3OwNoAvYnQ-Pu4-32" value="" style="endArrow=none;html=1;rounded=0;" edge="1" parent="1" source="v0zVqJ3OwNoAvYnQ-Pu4-31" target="v0zVqJ3OwNoAvYnQ-Pu4-5">
          <mxGeometry width="50" height="50" relative="1" as="geometry">
            <mxPoint x="980" y="733" as="sourcePoint" />
            <mxPoint x="1115" y="610" as="targetPoint" />
          </mxGeometry>
        </mxCell>
        <mxCell id="v0zVqJ3OwNoAvYnQ-Pu4-33" value="&amp;lt;&amp;lt;include&amp;gt;&amp;gt;" style="endArrow=open;endSize=12;dashed=1;html=1;rounded=0;edgeStyle=orthogonalEdgeStyle;" edge="1" parent="1" target="v0zVqJ3OwNoAvYnQ-Pu4-31" source="v0zVqJ3OwNoAvYnQ-Pu4-8">
          <mxGeometry x="0.5039" width="160" relative="1" as="geometry">
            <mxPoint x="279.8709072683271" y="315.04761904761904" as="sourcePoint" />
            <mxPoint x="880" y="360" as="targetPoint" />
            <Array as="points">
              <mxPoint x="630" y="315" />
              <mxPoint x="630" y="440" />
              <mxPoint x="920" y="440" />
            </Array>
            <mxPoint as="offset" />
          </mxGeometry>
        </mxCell>
        <mxCell id="v0zVqJ3OwNoAvYnQ-Pu4-34" value="" style="endArrow=none;endSize=12;dashed=1;html=1;rounded=0;edgeStyle=orthogonalEdgeStyle;startFill=0;" edge="1" parent="1" source="v0zVqJ3OwNoAvYnQ-Pu4-6">
          <mxGeometry width="160" relative="1" as="geometry">
            <mxPoint x="630" y="460" as="sourcePoint" />
            <mxPoint x="630" y="320" as="targetPoint" />
            <Array as="points">
              <mxPoint x="630" y="400" />
            </Array>
          </mxGeometry>
        </mxCell>
        <mxCell id="v0zVqJ3OwNoAvYnQ-Pu4-35" value="" style="endArrow=none;endSize=12;dashed=1;html=1;rounded=0;edgeStyle=orthogonalEdgeStyle;startFill=0;" edge="1" parent="1" source="v0zVqJ3OwNoAvYnQ-Pu4-7">
          <mxGeometry width="160" relative="1" as="geometry">
            <mxPoint x="550" y="440" as="sourcePoint" />
            <mxPoint x="630" y="340" as="targetPoint" />
            <Array as="points">
              <mxPoint x="630" y="360" />
            </Array>
          </mxGeometry>
        </mxCell>
        <mxCell id="v0zVqJ3OwNoAvYnQ-Pu4-36" value="" style="endArrow=none;endSize=12;dashed=1;html=1;rounded=0;edgeStyle=orthogonalEdgeStyle;startFill=0;" edge="1" parent="1" source="v0zVqJ3OwNoAvYnQ-Pu4-13">
          <mxGeometry width="160" relative="1" as="geometry">
            <mxPoint x="600" y="600" as="sourcePoint" />
            <mxPoint x="630" y="510" as="targetPoint" />
            <Array as="points">
              <mxPoint x="630" y="460" />
            </Array>
          </mxGeometry>
        </mxCell>
        <mxCell id="v0zVqJ3OwNoAvYnQ-Pu4-37" value="" style="endArrow=none;endSize=12;dashed=1;html=1;rounded=0;edgeStyle=orthogonalEdgeStyle;startFill=0;exitX=1;exitY=0.5;exitDx=0;exitDy=0;" edge="1" parent="1" source="v0zVqJ3OwNoAvYnQ-Pu4-14">
          <mxGeometry width="160" relative="1" as="geometry">
            <mxPoint x="620" y="610" as="sourcePoint" />
            <mxPoint x="630" y="400" as="targetPoint" />
            <Array as="points">
              <mxPoint x="630" y="540" />
            </Array>
          </mxGeometry>
        </mxCell>
        <mxCell id="v0zVqJ3OwNoAvYnQ-Pu4-38" value="" style="endArrow=none;endSize=12;dashed=1;html=1;rounded=0;edgeStyle=orthogonalEdgeStyle;startFill=0;exitX=1;exitY=1;exitDx=0;exitDy=0;" edge="1" parent="1" source="v0zVqJ3OwNoAvYnQ-Pu4-12">
          <mxGeometry width="160" relative="1" as="geometry">
            <mxPoint x="650" y="590" as="sourcePoint" />
            <mxPoint x="630" y="510" as="targetPoint" />
            <Array as="points">
              <mxPoint x="278" y="500" />
              <mxPoint x="630" y="500" />
            </Array>
          </mxGeometry>
        </mxCell>
        <mxCell id="v0zVqJ3OwNoAvYnQ-Pu4-39" value="Consultar Histórico de Empréstimos em andamento" style="ellipse;whiteSpace=wrap;html=1;fontSize=12;" vertex="1" parent="1">
          <mxGeometry x="310" y="670" width="150" height="80" as="geometry" />
        </mxCell>
        <mxCell id="v0zVqJ3OwNoAvYnQ-Pu4-40" value="&lt;div&gt;Consultar Histórico de Empréstimos Concluídos&lt;/div&gt;" style="ellipse;whiteSpace=wrap;html=1;fontSize=12;" vertex="1" parent="1">
          <mxGeometry x="330" y="580" width="150" height="80" as="geometry" />
        </mxCell>
        <mxCell id="v0zVqJ3OwNoAvYnQ-Pu4-41" value="" style="endArrow=none;html=1;rounded=0;" edge="1" parent="1" source="v0zVqJ3OwNoAvYnQ-Pu4-4" target="v0zVqJ3OwNoAvYnQ-Pu4-39">
          <mxGeometry width="50" height="50" relative="1" as="geometry">
            <mxPoint x="300" y="610" as="sourcePoint" />
            <mxPoint x="521" y="838" as="targetPoint" />
          </mxGeometry>
        </mxCell>
        <mxCell id="v0zVqJ3OwNoAvYnQ-Pu4-42" value="" style="endArrow=none;html=1;rounded=0;" edge="1" parent="1" source="v0zVqJ3OwNoAvYnQ-Pu4-4" target="v0zVqJ3OwNoAvYnQ-Pu4-40">
          <mxGeometry width="50" height="50" relative="1" as="geometry">
            <mxPoint x="50" y="490" as="sourcePoint" />
            <mxPoint x="818" y="879" as="targetPoint" />
          </mxGeometry>
        </mxCell>
        <mxCell id="v0zVqJ3OwNoAvYnQ-Pu4-43" value="Sistema" style="shape=umlActor;verticalLabelPosition=bottom;verticalAlign=top;html=1;" vertex="1" parent="1">
          <mxGeometry x="1100" y="650" width="30" height="60" as="geometry" />
        </mxCell>
        <mxCell id="v0zVqJ3OwNoAvYnQ-Pu4-44" value="&lt;div&gt;Notificar Usuário&amp;nbsp;&lt;/div&gt;&lt;div&gt;sobre a Disponibilidade de um Livro&lt;/div&gt;" style="ellipse;whiteSpace=wrap;html=1;fontSize=12;" vertex="1" parent="1">
          <mxGeometry x="770" y="620" width="140" height="80" as="geometry" />
        </mxCell>
        <mxCell id="v0zVqJ3OwNoAvYnQ-Pu4-45" value="Notificar Usuário sobre o empréstimo de um livro doado por ele" style="ellipse;whiteSpace=wrap;html=1;fontSize=12;" vertex="1" parent="1">
          <mxGeometry x="790" y="720" width="180" height="80" as="geometry" />
        </mxCell>
        <mxCell id="v0zVqJ3OwNoAvYnQ-Pu4-46" value="Notificar Usuário sobre o encerramento do prazo de devolução de um livro" style="ellipse;whiteSpace=wrap;html=1;fontSize=12;" vertex="1" parent="1">
          <mxGeometry x="845" y="820" width="150" height="80" as="geometry" />
        </mxCell>
        <mxCell id="v0zVqJ3OwNoAvYnQ-Pu4-47" value="" style="endArrow=none;html=1;rounded=0;" edge="1" parent="1" source="v0zVqJ3OwNoAvYnQ-Pu4-46" target="v0zVqJ3OwNoAvYnQ-Pu4-43">
          <mxGeometry width="50" height="50" relative="1" as="geometry">
            <mxPoint x="750" y="520" as="sourcePoint" />
            <mxPoint x="1118" y="687" as="targetPoint" />
          </mxGeometry>
        </mxCell>
        <mxCell id="v0zVqJ3OwNoAvYnQ-Pu4-48" value="" style="endArrow=none;html=1;rounded=0;" edge="1" parent="1" source="v0zVqJ3OwNoAvYnQ-Pu4-44" target="v0zVqJ3OwNoAvYnQ-Pu4-43">
          <mxGeometry width="50" height="50" relative="1" as="geometry">
            <mxPoint x="890" y="580" as="sourcePoint" />
            <mxPoint x="1258" y="747" as="targetPoint" />
          </mxGeometry>
        </mxCell>
        <mxCell id="v0zVqJ3OwNoAvYnQ-Pu4-49" value="" style="endArrow=none;html=1;rounded=0;" edge="1" parent="1" source="v0zVqJ3OwNoAvYnQ-Pu4-45" target="v0zVqJ3OwNoAvYnQ-Pu4-43">
          <mxGeometry width="50" height="50" relative="1" as="geometry">
            <mxPoint x="960" y="790" as="sourcePoint" />
            <mxPoint x="1328" y="957" as="targetPoint" />
          </mxGeometry>
        </mxCell>
        <mxCell id="v0zVqJ3OwNoAvYnQ-Pu4-50" value="Aumentar o Crédito do Usuário" style="ellipse;whiteSpace=wrap;html=1;fontSize=12;" vertex="1" parent="1">
          <mxGeometry x="450" y="1140" width="90" height="80" as="geometry" />
        </mxCell>
        <mxCell id="v0zVqJ3OwNoAvYnQ-Pu4-51" value="Descontar o Crédito do Usuário" style="ellipse;whiteSpace=wrap;html=1;fontSize=12;" vertex="1" parent="1">
          <mxGeometry x="440" y="970" width="90" height="80" as="geometry" />
        </mxCell>
        <mxCell id="v0zVqJ3OwNoAvYnQ-Pu4-52" value="&lt;div&gt;&amp;lt;&amp;lt;include&amp;gt;&amp;gt;&lt;/div&gt;" style="endArrow=open;endSize=12;dashed=1;html=1;rounded=0;" edge="1" parent="1" source="v0zVqJ3OwNoAvYnQ-Pu4-51" target="v0zVqJ3OwNoAvYnQ-Pu4-23">
          <mxGeometry width="160" relative="1" as="geometry">
            <mxPoint x="500" y="1040" as="sourcePoint" />
            <mxPoint x="390" y="1040" as="targetPoint" />
          </mxGeometry>
        </mxCell>
        <mxCell id="v0zVqJ3OwNoAvYnQ-Pu4-53" value="&lt;div&gt;&amp;lt;&amp;lt;include&amp;gt;&amp;gt;&lt;/div&gt;" style="endArrow=open;endSize=12;dashed=1;html=1;rounded=0;" edge="1" parent="1" source="v0zVqJ3OwNoAvYnQ-Pu4-51" target="v0zVqJ3OwNoAvYnQ-Pu4-16">
          <mxGeometry width="160" relative="1" as="geometry">
            <mxPoint x="530" y="990" as="sourcePoint" />
            <mxPoint x="420" y="990" as="targetPoint" />
          </mxGeometry>
        </mxCell>
        <mxCell id="v0zVqJ3OwNoAvYnQ-Pu4-54" value="Doar um livro" style="ellipse;whiteSpace=wrap;html=1;" vertex="1" parent="1">
          <mxGeometry x="200" y="1240" width="80" height="60" as="geometry" />
        </mxCell>
        <mxCell id="v0zVqJ3OwNoAvYnQ-Pu4-55" value="&lt;div&gt;&amp;lt;&amp;lt;extend&amp;gt;&amp;gt;&lt;/div&gt;" style="endArrow=open;endSize=12;dashed=1;html=1;rounded=0;" edge="1" parent="1" source="v0zVqJ3OwNoAvYnQ-Pu4-50" target="v0zVqJ3OwNoAvYnQ-Pu4-24">
          <mxGeometry width="160" relative="1" as="geometry">
            <mxPoint x="561" y="1190" as="sourcePoint" />
            <mxPoint x="390" y="1267" as="targetPoint" />
          </mxGeometry>
        </mxCell>
        <mxCell id="v0zVqJ3OwNoAvYnQ-Pu4-56" value="&lt;div&gt;&amp;lt;&amp;lt;include&amp;gt;&amp;gt;&lt;/div&gt;" style="endArrow=open;endSize=12;dashed=1;html=1;rounded=0;" edge="1" parent="1" source="v0zVqJ3OwNoAvYnQ-Pu4-50" target="v0zVqJ3OwNoAvYnQ-Pu4-54">
          <mxGeometry width="160" relative="1" as="geometry">
            <mxPoint x="570" y="1240" as="sourcePoint" />
            <mxPoint x="400" y="1246" as="targetPoint" />
          </mxGeometry>
        </mxCell>
        <mxCell id="v0zVqJ3OwNoAvYnQ-Pu4-57" value="" style="endArrow=none;html=1;rounded=0;" edge="1" parent="1" source="v0zVqJ3OwNoAvYnQ-Pu4-3" target="v0zVqJ3OwNoAvYnQ-Pu4-54">
          <mxGeometry width="50" height="50" relative="1" as="geometry">
            <mxPoint x="390" y="1310" as="sourcePoint" />
            <mxPoint x="500" y="1424" as="targetPoint" />
          </mxGeometry>
        </mxCell>
      </root>
    </mxGraphModel>
  </diagram>
</mxfile>
